<?xml version="1.0" encoding="UTF-8" standalone="no"?>
<!-- Page 1 -->

<svg
   xmlns:dc="http://purl.org/dc/elements/1.1/"
   xmlns:cc="http://creativecommons.org/ns#"
   xmlns:rdf="http://www.w3.org/1999/02/22-rdf-syntax-ns#"
   xmlns:svg="http://www.w3.org/2000/svg"
   xmlns="http://www.w3.org/2000/svg"
   xmlns:sodipodi="http://sodipodi.sourceforge.net/DTD/sodipodi-0.dtd"
   xmlns:inkscape="http://www.inkscape.org/namespaces/inkscape"
   x="0"
   y="0"
   width="1469.8965"
   height="277.90054"
   viewBox="0 0 1469.8965 277.90054"
   version="1.1"
   style="display:block"
   id="svg2"
   inkscape:version="0.48.4 r9939"
   sodipodi:docname="logo.svg">
  <metadata
     id="metadata12">
    <rdf:RDF>
      <cc:Work
         rdf:about="">
        <dc:format>image/svg+xml</dc:format>
        <dc:type
           rdf:resource="http://purl.org/dc/dcmitype/StillImage" />
        <dc:title></dc:title>
      </cc:Work>
    </rdf:RDF>
  </metadata>
  <defs
     id="defs10" />
  <sodipodi:namedview
     pagecolor="#ffffff"
     bordercolor="#666666"
     borderopacity="1"
     objecttolerance="10"
     gridtolerance="10"
     guidetolerance="10"
     inkscape:pageopacity="0"
     inkscape:pageshadow="2"
     inkscape:window-width="1366"
     inkscape:window-height="709"
     id="namedview8"
     showgrid="false"
     fit-margin-top="10"
     fit-margin-left="5"
     fit-margin-right="5"
     fit-margin-bottom="5"
     inkscape:zoom="0.38167702"
     inkscape:cx="733.39245"
     inkscape:cy="403.40471"
     inkscape:window-x="0"
     inkscape:window-y="0"
     inkscape:window-maximized="1"
     inkscape:current-layer="svg2" />
  <path
     id="path3064"
     style="fill:#ffffff;fill-opacity:1"
     d="m 311.3043,190.05949 c -8.79435,-2.9982 -15.46878,-9.325 -18.10077,-17.1582 -1.63286,-4.8597 -1.66577,-57.6419 -0.0393,-63.0706 1.57724,-5.2643 6.8135,-11.124603 13.21006,-14.784403 14.49901,-8.2955 41.91049,-5.4384 50.03643,5.215203 5.4526,7.1488 5.59469,8.2054 5.57099,41.4287 -0.0199,27.872 -0.19821,31.1702 -1.88626,34.8872 -2.40749,5.3013 -9.76035,11.4109 -16.37599,13.6071 -7.22352,2.398 -25.21811,2.3286 -32.41515,-0.125 z m -33.90252,81.8193 c 6.11414,-1.6976 10.42651,-5.0194 12.86059,-9.9065 2.15976,-4.3363 2.24129,-5.5094 2.24129,-32.249 0,-15.2619 0.0899,-27.7494 0.19987,-27.75 0.10993,-5e-4 2.18418,1.3382 4.60946,2.975 12.39736,8.3669 24.98438,11.7473 39.68849,10.659 10.90782,-0.8073 17.03087,-2.4901 25.76908,-7.0819 14.92797,-7.8444 23.50586,-20.4651 25.26311,-37.1699 1.18916,-11.3044 1.21223,-48.2448 0.0371,-59.4067 -1.33599,-12.689903 -5.037,-20.898103 -13.16368,-29.194803 -8.52883,-8.7072 -17.35053,-13.0216 -31.57894,-15.4441 -9.73296,-1.6571 -10.59554,-1.6533 -19.83375,0.087 -11.02502,2.0765 -18.55004,5.5019 -26.49075,12.0584 l -5.5,4.5413 -0.25578,-6.262 c -0.48952,-11.9842 -1.07283,-12.5388 -10.26154,-9.7567 -7.08128,2.144 -9.32516,3.8707 -12.33909,9.4948 -2.10715,3.932 -2.15209,5.0344 -2.64359,64.847603 l -0.5,60.8477 -12,-16.6362 c -6.6,-9.15 -13.38772,-18.5314 -15.08382,-20.8477 -15.53185,-21.2111 -19.41617,-26.7676 -19.41617,-27.7749 0,-0.6417 8.18288,-12.7025 18.18418,-26.8017 26.98083,-38.035703 26.81582,-37.795303 26.81582,-39.068003 0,-0.6486 -2.08698,-2.1024 -4.63774,-3.2308 -3.52987,-1.5614 -6.09786,-1.9537 -10.75,-1.6421 -9.73275,0.6518 -12.35043,2.9495 -25.55086,22.4276 -16.61253,24.513003 -19.72026,28.878503 -20.55809,28.878503 -0.41306,0 -7.25711,-9.675 -15.20901,-21.500003 -15.96068,-23.7346 -19.01711,-27.4234 -24.11688,-29.1065 -7.13763,-2.3556 -21.17742,0.577 -21.17742,4.4236 0,0.699 5.70514,9.3511 12.6781,19.2269 6.97295,9.875803 16.88725,23.918903 22.03176,31.207003 5.14452,7.288 9.54342,13.813 9.77534,14.5 0.23192,0.6869 -1.24487,3.5871 -3.28176,6.4448 -13.12394,18.4126 -34.29789,47.1377 -35.45295,48.0963 -1.05655,0.8769 -2.40684,0.6272 -5.81335,-1.075 -4.3856,-2.1914 -5.03826,-2.2205 -56.187137,-2.5093 l -51.75,-0.2922 0,-31.4065 0,-31.4065 32.25,-0.3013 c 31.3202,-0.2926 32.3725,-0.3667 36.498877,-2.5711 5.35011,-2.858 9.08854,-8.4393 10.14988,-15.1533 1.34534,-8.510503 3.51814,-8.076903 -40.470187,-8.076903 l -38.42857,0 0,-30.973 0,-30.973 49.82409,-0.277 49.824077,-0.277 4.26429,-2.8227 c 6.57234,-4.3504 11.17832,-16.4437 7.61871,-20.0033 -1.53067,-1.5306 -7.12712,-1.6726 -65.352597,-1.6576 l -63.678568,0.016 -4,2.2487 c -7.98257,4.4874 -7.4967,-1.8908 -7.49845,98.434503 -0.002,99.1931 -0.39878,93.4167 6.75833,98.3224 l 3.59123,2.4615 64.074438,0.7407 c 35.240947,0.4074 67.485557,0.8574 71.654697,1 11.45204,0.3918 10.07626,1.8982 42.88596,-46.9594 4.14359,-6.1703 8.04156,-11.2328 8.66216,-11.25 0.62061,-0.017 3.80346,3.9062 7.07301,8.7187 11.03375,16.2408 23.4601,34.3917 27.44467,40.0879 5.74144,8.2078 10.81398,10.5878 21.06847,9.8849 l 7.78548,-0.5336 0,27.3339 c 0,23.5158 0.21951,27.5536 1.57143,28.9055 1.84283,1.8428 4.45357,1.9698 9.82669,0.4779 z"
     inkscape:connector-curvature="0" />
  <path
     id="path3060"
     style="fill:#ffffff;fill-opacity:1"
     d="m 497.12456,191.00089 c -10.30915,-3.5094 -18.21228,-11.193 -20.16259,-19.6023 -0.50083,-2.1595 -0.92133,-15.4321 -0.93445,-29.4948 -0.0278,-29.7935 0.61976,-33.4198 7.25294,-40.616 7.60819,-8.253903 17.5938,-11.732903 31.86675,-11.102603 12.06089,0.5326 19.48387,3.3193 25.88014,9.7155 7.56077,7.560803 7.97631,9.783603 7.97631,42.666803 0,25.8108 -0.16709,28.6116 -1.94323,32.5719 -3.46358,7.7229 -9.19347,12.6114 -18.55848,15.8335 -7.74544,2.6648 -23.59006,2.6789 -31.37739,0.028 z m -44.6209,22.5881 c 5.35758,-2.5328 10.27305,-7.1173 11.95949,-11.1542 l 1.04051,-2.4907 4.97132,3.5463 c 12.25807,8.7443 25.07039,12.4819 42.78775,12.4819 20.10662,0 35.56198,-5.8039 47.8505,-17.969 12.46341,-12.3383 14.8912,-21.4058 14.88906,-55.6089 -0.002,-34.0909 -2.41912,-43.404103 -14.63598,-56.395603 -7.70501,-8.1936 -18.42205,-14.1222 -30.9392,-17.1156 -11.46112,-2.7408 -29.1074,-2.2584 -39.75593,1.0867 -22.70716,7.1333 -37.21866,23.07 -39.84658,43.760103 -0.54087,4.2582 -0.79811,19.6673 -0.57166,34.2423 0.4004,25.7712 0.48514,26.6958 3.08122,33.621 1.46823,3.9165 2.6695,7.3617 2.6695,7.656 0,1.2766 -9.8344,3.723 -14.96625,3.723 -7.17402,0 -13.72041,-3.1719 -16.51087,-8 -1.97625,-3.4193 -2.03441,-5.4709 -2.52288,-89.000003 l -0.5,-85.5 -4.31002,-0.3104 c -8.85112,-0.6374999 -19.03877,5.3036 -20.71233,12.0787 -0.30319,1.2274 -0.4222,38.9067 -0.26445,83.731703 l 0.2868,81.5 3.08645,6.5 c 7.42418,15.6351 18.16474,21.8495 37.91355,21.9364 8.49357,0.037 10.75321,-0.312 15,-2.3197 z"
     inkscape:connector-curvature="0" />
  <path
     id="path3056"
     style="fill:#00c347;fill-opacity:1"
     d="m 842.82421,187.64409 c -9.26949,-2.6282 -14.42234,-8.5139 -15.51251,-17.7187 -0.80909,-6.8315 1.65788,-12.8729 7.27595,-17.8181 5.33803,-4.6987 10.40833,-6.1369 21.60883,-6.1294 13.09732,0.01 20.70723,3.0636 26.47748,10.6288 2.49659,3.2732 2.8297,4.5517 2.8297,10.8608 0,9.2962 -2.71526,13.7688 -10.86085,17.8901 -4.93848,2.4986 -6.98631,2.9027 -16.39135,3.2343 -7.01229,0.2472 -12.37419,-0.082 -15.42725,-0.9478 z m 23.22755,25.5422 c 6.67753,-2.3678 13.37845,-5.7124 17.4519,-8.7108 5.10073,-3.7544 5.85263,-4.0306 4.59977,-1.6896 -1.63821,3.061 -1.37714,10.7113 0.41631,12.1997 1.05331,0.8742 3.23232,1.0566 7.13862,0.5975 8.60267,-1.0111 14.81969,-3.4307 19.15432,-7.4548 6.46742,-6.004 7.19177,-11.2805 7.18696,-52.3534 -0.005,-38.6252 -1.00567,-48.662 -5.85178,-58.666203 -3.85483,-7.9578 -7.27418,-12.2392 -13.57306,-16.9949 -6.1121,-4.6147 -14.09347,-8.1744 -24.07114,-10.7356 -10.58526,-2.7173 -31.20801,-2.4914 -42.94878,0.4704 -12.92363,3.2601 -22.56388,8.263 -28.55586,14.8192 -9.86547,10.7944 -8.82817,21.191303 2.7957,28.021303 l 4.29105,2.5214 6.40364,-6.1491 c 10.46492,-10.049003 21.49581,-13.790503 37.66408,-12.775103 17.08157,1.0726 26.85017,9.723603 26.85017,23.778103 0,5.7814 0.22584,6.3847 3.5712,9.5398 4.26459,4.022 3.86631,4.2833 -1.2434,0.8158 -6.74382,-4.5765 -16.15546,-8.5111 -23.90563,-9.9939 -27.3963,-5.2418 -55.30717,5.7911 -66.13211,26.1413 -10.37455,19.5036 -4.20145,46.5494 13.32442,58.3775 8.15159,5.5014 12.3164,7.1819 25.88552,10.4449 4.82165,1.1594 24.12331,-0.28 29.5481,-2.2035 z"
     inkscape:connector-curvature="0" />
  <path
     style="fill:#00c347;fill-opacity:1"
     d="m 1026.0573,212.72439 c 6.3402,-2.8179 12.3791,-7.7544 14.4975,-11.8509 2.8377,-5.4875 1.24,-16.3434 -2.912,-19.7867 -1.4373,-1.1921 -2.5791,-1.0873 -8.1759,0.75 -7.5143,2.4668 -17.8932,2.8183 -22.7909,0.7719 -1.7949,-0.7499 -4.143,-2.6624 -5.2179,-4.25 -1.85654,-2.7417 -1.95444,-4.841 -1.95444,-41.8864 l 0,-39.000003 11.61104,-0.5252 c 10.4953,-0.4747 12.0065,-0.7868 15.7258,-3.2481 2.263,-1.4976 4.7864,-3.7482 5.6074,-5.0012 1.7589,-2.6845 4.6016,-15.4425 3.8673,-17.3562 -0.3908,-1.0183 -4.7098,-1.3879 -18.66,-1.5971 l -18.15154,-0.2722 -0.5,-22 -0.5,-22 -8.5,0.028 c -9.5473,0.031 -15.7085,1.9395 -20.3393,6.299 -5.4151,5.0979 -6.1161,7.5378 -6.6581,23.173 l -0.5026,14.5 -8,0.548 c -9.03834,0.6192 -10.94335,1.415 -15.32078,6.4007 -3.29964,3.758 -4.86033,8.281 -5.36614,15.5513 l -0.31308,4.5 14.5,0.5 14.5,0.5 0.5145,42.500003 c 0.5507,45.4854 0.3939,44.0395 5.9583,54.9467 4.8411,9.4894 13.6286,16.0826 26.0272,19.528 8.38964,2.3313 23.86374,1.473 31.05364,-1.7226 z"
     id="path3054"
     inkscape:connector-curvature="0" />
  <path
     style="fill:#00c347;fill-opacity:1"
     d="m 1135.2453,212.68439 c 10.029,-3.6568 17.2172,-8.3978 24.5808,-16.2125 5.8075,-6.1631 6.2173,-5.9016 1.5243,0.9725 -1.9882,2.9122 -1.8156,15.8935 0.2339,17.5944 2.2668,1.8813 13.3024,-0.1695 20.2419,-3.7617 7.0837,-3.6667 10.7609,-8.8394 12.661,-17.8096 2.2031,-10.401 2.2411,-123.649303 0.042,-125.474303 -2.6567,-2.2049 -18.8307,0.4995 -26.4017,4.4147 -1.7228,0.8909 -4.368,3.4858 -5.8782,5.7665 l -2.7457,4.1468 -0.5,40.075303 c -0.4797,38.4492 -0.5875,40.258 -2.6575,44.5754 -2.6992,5.6298 -8.248,11.3915 -13.677,14.2019 -5.0365,2.6073 -18.9063,3.6241 -25.4286,1.8642 -5.4853,-1.48 -11.0154,-6.3671 -13.6537,-12.0661 -2.0069,-4.3351 -2.0943,-6.2941 -2.3865,-53.4739 -0.2268,-36.615503 -0.6053,-49.175903 -1.5,-49.774503 -1.7664,-1.1816 -12.3135,0.099 -19.2738,2.3397 -7.1386,2.2985 -11.6439,6.4493 -13.8804,12.7882 -2.361,6.6918 -2.2659,80.662103 0.1173,91.247903 4.9298,21.8968 18.9248,36.2642 39.8402,40.9002 7.015,1.5549 21.2788,0.4059 28.7416,-2.3151 z"
     id="path3052"
     inkscape:connector-curvature="0" />
  <path
     style="fill:#00c347;fill-opacity:1"
     d="m 1249.5369,213.33539 c 6.1423,-2.0564 9.7075,-4.4901 12.677,-8.6532 2.2727,-3.1863 2.2935,-3.5087 2.7898,-43.2103 0.5662,-45.2938 0.2632,-43.5689 9.1675,-52.1992 6.5986,-6.3957 14.0345,-9.357203 25.0997,-9.996703 8.2205,-0.475 12.2442,-0.069 22.9849,2.318203 2.4668,0.5483 2.9196,0.211 4.3667,-3.252403 2.4938,-5.9684 1.454,-16.2143 -2.1772,-21.4541 -7.4851,-10.801 -24.9176,-12.6607 -42.1166,-4.493 -5.3953,2.5623 -9.2952,5.4506 -14.8233,10.9787 -4.1259,4.126 -7.5017,7.3094 -7.5017,7.0743 0,-0.2351 0.8983,-1.9008 1.9963,-3.7016 1.5007,-2.4614 1.9972,-5.0435 2,-10.4017 0,-8.6156 -1.0073,-9.8621 -7.2117,-8.8856 -13.9729,2.1993 -22.2003,7.6628 -25.7249,17.0831 -1.9988,5.3422 -2.0597,7.3507 -2.0597,67.884203 0,48.9342 0.2694,62.5014 1.25,62.9463 2.1361,0.9691 14.0695,-0.2915 19.2832,-2.037 z"
     id="path3050"
     inkscape:connector-curvature="0" />
  <path
     id="path3046"
     style="fill:#00c347;fill-opacity:1"
     d="m 1373.6856,127.32049 c -1.2339,-1.2339 -0.7117,-10.0127 0.861,-14.4729 1.8095,-5.1319 7.3164,-11.1641 12.9571,-14.193103 5.5486,-2.9796 23.1575,-3.1466 28.5,-0.2704 10.7423,5.783203 15.279,12.803303 14.7962,22.895703 l -0.2962,6.1921 -28.0681,0.2653 c -15.4374,0.1459 -28.3749,-0.042 -28.75,-0.4167 z m 50.8181,85.676 c 15.9167,-4.372 26.8813,-11.4118 33.2348,-21.3383 3.984,-6.2246 3.855,-14.1332 -0.3157,-19.3641 -4.5507,-5.7074 -9.4862,-7.8163 -18.2998,-7.8195 -8.125,0 -8.1372,0.01 -10.0531,7.2022 -1.4708,5.5246 -4.9636,9.5333 -10.81,12.4064 -4.1046,2.0172 -6.2632,2.3389 -15.7562,2.348 -9.9884,0.01 -11.4669,-0.2344 -16.0775,-2.6538 -8.529,-4.4755 -13.4225,-13.1618 -13.4225,-23.8257 l 0,-5.9798 38.7881,0 c 38.2384,0 38.8512,-0.032 43.2419,-2.25 8.4339,-4.2607 10.8404,-11.6034 9.5266,-29.0677 -0.7839,-10.4205 -3.3033,-19.6876 -7.1257,-26.209903 -10.7,-18.2583 -30.9255,-28.8631 -54.9309,-28.8016 -12.8406,0.033 -21.7418,2.1822 -33.4522,8.0775 -14.5577,7.3289 -26.9685,22.9187 -30.0458,37.742103 -0.7512,3.6182 -1.03,14.8887 -0.8105,32.7626 0.3306,26.9247 0.3661,27.3208 2.9975,33.4872 7.4534,17.466 23.5969,29.8049 45.3632,34.6723 9.6922,2.1674 27.3562,1.5213 37.9478,-1.3879 z"
     inkscape:connector-curvature="0" />
  <path
     style="fill:#00c347;fill-opacity:1"
     d="m 618.00366,213.90559 c 12.85439,-2.0789 20.3403,-8.1435 23.3313,-18.9015 1.47054,-5.2893 1.65937,-12.5647 1.5901,-61.2671 l -0.0786,-55.265103 -2.90132,-4.5 c -1.59572,-2.475 -3.36935,-5.5655 -3.94139,-6.8677 -0.57204,-1.3022 -1.90593,-3.4684 -2.9642,-4.8138 -1.95048,-2.4797 -1.77456,-5.3185 0.3296,-5.3185 0.63332,0 2.94768,2.9277 5.14301,6.5059 3.83515,6.2511 27.24176,43.067203 40.23293,63.282103 3.43278,5.3416 10.63278,16.5808 16,24.976 5.36722,8.3952 11.33358,17.7264 13.25858,20.736 1.925,3.0096 7.95103,12.4942 13.39118,21.077 13.63096,21.5053 13.86703,21.7613 19.31084,20.945 6.94387,-1.0413 11.18973,-3.2833 16.75244,-8.846 3.82656,-3.8266 5.4935,-6.4123 6.36492,-9.873 1.52545,-6.0581 1.64349,-159.083603 0.12778,-165.657003 -1.29628,-5.6217 -4.97609,-10.3778 -10.79753,-13.9556 -5.14952,-3.1648 -17.31986,-6.5280999 -21.77872,-6.0185 l -2.87091,0.3281 -0.25733,64.8655 -0.25734,64.865403 3.25734,5.4923 c 1.79153,3.0207 4.01194,6.6813 4.93424,8.1345 0.9223,1.4533 1.7098,3.4298 1.75,4.3923 0.18256,4.3712 -3.15683,0.6027 -12.40592,-14 -5.48666,-8.6625 -14.50754,-22.725 -20.0464,-31.25 -5.53886,-8.525 -13.42404,-20.791303 -17.52262,-27.258503 -8.60716,-13.5813 -12.05238,-18.9733 -20.74658,-32.47 -3.46203,-5.3743 -6.83703,-10.6422 -7.5,-11.7065 -2.62177,-4.2086 -15.69718,-24.2832 -18.11702,-27.815 -2.93479,-4.2833999 -5.02694,-4.6409999 -13.08837,-2.2377 -10.67367,3.1821 -16.00215,7.0484 -20.65552,14.9877 l -2.34448,4 -0.2707,90.974903 c -0.14889,50.0361 -0.0505,91.5486 0.21861,92.25 0.59284,1.5449 3.94565,1.6006 12.55209,0.2088 z"
     id="path3038"
     inkscape:connector-curvature="0" />
</svg>
